<?xml version="1.0" standalone="no"?>
<!DOCTYPE svg PUBLIC "-//W3C//DTD SVG 20010904//EN"
 "http://www.w3.org/TR/2001/REC-SVG-20010904/DTD/svg10.dtd">
<svg version="1.0" xmlns="http://www.w3.org/2000/svg"
 width="480.000000pt" height="480.000000pt" viewBox="0 0 480.000000 480.000000"
 preserveAspectRatio="xMidYMid meet">
<metadata>
Created by potrace 1.11, written by Peter Selinger 2001-2013
</metadata>
<g transform="translate(0.000000,480.000000) scale(0.100000,-0.100000)"
fill="#000000" stroke="none">
<path d="M3123 4186 c-204 -50 -376 -232 -413 -439 -39 -216 58 -438 242 -558
174 -112 406 -115 584 -7 115 69 218 210 248 341 20 86 14 219 -13 299 -55
163 -182 291 -347 349 -73 25 -226 33 -301 15z"/>
<path d="M2015 4093 c-50 -12 -124 -50 -168 -86 -99 -82 -148 -191 -143 -322
6 -159 87 -279 234 -348 54 -25 80 -31 146 -33 137 -4 247 47 331 153 55 70
77 133 81 233 6 163 -79 300 -229 371 -56 26 -82 32 -150 34 -45 1 -91 0 -102
-2z"/>
<path d="M1103 3981 c-212 -72 -270 -340 -107 -498 190 -183 511 -37 500 228
-8 202 -201 335 -393 270z"/>
<path d="M1079 3085 c-179 -49 -324 -198 -365 -375 -10 -40 -13 -181 -14 -532
l0 -478 450 0 450 0 0 -250 0 -250 400 0 400 0 0 -300 0 -300 850 0 851 0 -4
738 c-2 405 -6 751 -9 767 -68 322 -292 567 -603 661 -80 24 -106 27 -235 27
-129 0 -155 -3 -235 -27 -102 -31 -196 -78 -273 -136 -29 -22 -54 -40 -56 -40
-2 0 -13 27 -25 59 -37 103 -134 217 -234 275 -113 67 -274 91 -401 61 -120
-28 -247 -111 -316 -206 l-26 -37 -32 67 c-54 117 -151 208 -275 258 -74 29
-224 39 -298 18z"/>
</g>
</svg>
